<svg xmlns="http://www.w3.org/2000/svg" width="1600" height="1100" viewBox="0 0 1600 1100" fill="none">
  <defs>
    <linearGradient id="base" x1="0" y1="0" x2="1600" y2="1100" gradientUnits="userSpaceOnUse"><stop stop-color="#0b0c0e"/><stop offset=".5" stop-color="#14161a"/><stop offset="1" stop-color="#08090b"/></linearGradient>
    <linearGradient id="glass" x1="1460" y1="-90" x2="340" y2="1100" gradientUnits="userSpaceOnUse"><stop stop-color="#44484f" stop-opacity=".72"/><stop offset=".28" stop-color="#1e2025" stop-opacity=".35"/><stop offset=".55" stop-color="#51555d" stop-opacity=".62"/><stop offset=".72" stop-color="#23262c" stop-opacity=".32"/><stop offset="1" stop-color="#0e1013"/></linearGradient>
    <linearGradient id="rim" x1="1400" y1="-50" x2="570" y2="1030" gradientUnits="userSpaceOnUse"><stop stop-color="#eff2f7" stop-opacity=".04"/><stop offset=".27" stop-color="#ebedf1" stop-opacity=".36"/><stop offset=".45" stop-color="#8a909a" stop-opacity=".08"/><stop offset=".64" stop-color="#f7f9ff" stop-opacity=".48"/><stop offset="1" stop-color="#afb5c0" stop-opacity=".03"/></linearGradient>
    <linearGradient id="sheen" x1="1320" y1="120" x2="440" y2="1130" gradientUnits="userSpaceOnUse"><stop stop-color="#dbe1eb" stop-opacity="0"/><stop offset=".3" stop-color="#c8cdd6" stop-opacity=".12"/><stop offset=".64" stop-color="#f4f6fa" stop-opacity=".20"/><stop offset="1" stop-color="#aeb4bf" stop-opacity="0"/></linearGradient>
    <radialGradient id="light"><stop stop-color="#aab0bd" stop-opacity=".10"/><stop offset="1" stop-color="#aab0bd" stop-opacity="0"/></radialGradient>
    <filter id="soft" x="-30%" y="-30%" width="160%" height="160%"><feGaussianBlur stdDeviation="22"/></filter>
  </defs>
  <path fill="url(#base)" d="M0 0h1600v1100H0z"/>
  <ellipse cx="1270" cy="370" rx="670" ry="680" fill="url(#light)"/>
  <path d="M1490-140c-541 121-618 302-452 498 224 265 25 382-427 550-249 93-375 201-460 332h1599V-140Z" fill="url(#glass)"/>
  <path d="M1490-140c-541 121-618 302-452 498 224 265 25 382-427 550-249 93-375 201-460 332" stroke="#d5dae2" stroke-width="42" opacity=".045" filter="url(#soft)"/>
  <path d="M1490-140c-541 121-618 302-452 498 224 265 25 382-427 550-249 93-375 201-460 332" stroke="url(#sheen)" stroke-width="26"/>
  <path d="M1490-140c-541 121-618 302-452 498 224 265 25 382-427 550-249 93-375 201-460 332" stroke="url(#rim)" stroke-width="1.5"/>
  <path d="M1700 15c-365 123-195 302-441 525-165 150-360 181-644 388-203 148-238 226-264 350" stroke="url(#sheen)" stroke-width="18" opacity=".45"/>
  <path d="M1700 15c-365 123-195 302-441 525-165 150-360 181-644 388-203 148-238 226-264 350" stroke="url(#rim)" stroke-width="1" opacity=".5"/>
</svg>
